<?xml version="1.0" standalone="no"?>
<!DOCTYPE svg PUBLIC "-//W3C//DTD SVG 20010904//EN"
 "http://www.w3.org/TR/2001/REC-SVG-20010904/DTD/svg10.dtd">
<svg version="1.0" xmlns="http://www.w3.org/2000/svg"
 width="800.000000pt" height="800.000000pt" viewBox="0 0 800.000000 800.000000"
 preserveAspectRatio="xMidYMid meet">
<metadata>
Created by potrace 1.11, written by Peter Selinger 2001-2013
</metadata>
<g transform="translate(0.000000,800.000000) scale(0.100000,-0.100000)"
fill="#000000" stroke="none">
<path d="M3788 7995 c-1 -1 -48 -6 -103 -9 -55 -4 -109 -9 -120 -12 -11 -2
-42 -6 -70 -8 -27 -3 -50 -5 -50 -6 0 -1 -9 -3 -20 -4 -62 -8 -128 -19 -190
-32 -159 -32 -212 -45 -318 -75 -917 -259 -1718 -843 -2245 -1636 -190 -286
-346 -600 -454 -913 -25 -72 -93 -302 -103 -350 -15 -63 -57 -272 -61 -300 -3
-19 -7 -46 -10 -60 -2 -14 -6 -50 -9 -80 -4 -30 -8 -66 -10 -80 -12 -68 -20
-246 -20 -430 0 -229 7 -352 31 -530 15 -115 51 -303 80 -420 19 -74 36 -142
38 -151 53 -213 208 -586 353 -848 38 -69 183 -302 193 -311 3 -3 14 -18 24
-35 11 -16 23 -34 28 -40 5 -5 41 -53 80 -105 63 -83 85 -110 133 -164 6 -6
30 -34 54 -61 339 -383 796 -728 1246 -940 131 -62 251 -115 260 -115 4 0 21
-6 38 -14 139 -62 540 -176 707 -201 24 -4 47 -8 50 -10 5 -3 24 -6 175 -25
158 -21 244 -25 515 -25 243 0 377 6 460 20 14 2 49 7 79 10 30 4 63 9 75 11
12 2 38 6 58 9 20 3 90 16 155 31 65 14 125 27 134 29 47 10 249 71 344 104
340 118 632 266 945 479 110 74 275 199 320 242 9 8 50 44 90 80 186 163 393
390 544 595 36 50 69 95 73 100 12 15 106 157 119 180 6 11 35 61 64 110 124
212 231 449 318 700 31 89 108 356 117 404 2 13 9 47 14 75 6 28 12 62 15 76
2 14 7 36 10 50 3 14 8 41 10 60 2 19 7 51 10 70 25 149 31 267 31 570 0 298
-2 333 -31 540 -140 1028 -684 1965 -1514 2611 -58 45 -150 112 -205 148 -55
36 -102 68 -105 71 -3 3 -16 12 -30 19 -14 8 -63 37 -110 64 -85 50 -295 157
-380 195 -127 57 -406 159 -459 169 -13 2 -28 6 -33 9 -4 3 -16 7 -25 9 -10 3
-63 16 -118 31 -55 14 -109 28 -120 30 -109 22 -185 36 -212 39 -17 2 -57 8
-90 14 -32 5 -92 13 -133 17 -41 4 -88 9 -105 11 -39 5 -532 13 -537 8z m557
-179 c17 -2 56 -7 88 -10 112 -11 359 -54 472 -83 33 -8 67 -16 75 -18 28 -6
255 -75 275 -84 11 -5 61 -24 110 -42 584 -211 1171 -632 1590 -1139 123 -149
282 -375 355 -505 214 -380 348 -721 429 -1090 50 -229 70 -366 87 -593 8
-108 8 -402 0 -502 -11 -142 -24 -265 -30 -300 -3 -14 -12 -65 -20 -115 -19
-109 -20 -112 -41 -200 -9 -38 -18 -78 -20 -87 -51 -244 -224 -670 -386 -953
-109 -191 -290 -446 -433 -609 -68 -79 -272 -285 -351 -357 -277 -248 -673
-500 -1020 -648 -55 -23 -109 -46 -120 -51 -111 -49 -469 -155 -625 -185 -84
-17 -237 -43 -250 -43 -15 0 -93 -10 -140 -18 -128 -21 -613 -21 -773 1 -18 2
-54 6 -82 9 -27 3 -59 8 -70 10 -11 2 -42 7 -68 10 -27 4 -59 9 -70 12 -12 2
-38 7 -57 10 -77 12 -292 67 -415 105 -663 208 -1272 604 -1728 1124 -112 128
-113 130 -193 237 -310 417 -525 868 -649 1368 -32 125 -43 174 -50 225 -4 23
-13 79 -20 115 -4 22 -7 46 -20 150 -14 106 -20 238 -20 440 0 234 6 334 30
515 11 87 55 329 66 362 5 17 12 43 15 57 17 93 159 518 184 551 4 6 11 21 15
35 14 46 118 253 193 385 236 412 501 721 932 1089 154 132 498 347 735 461
195 93 563 228 678 249 7 1 21 5 32 9 11 3 31 8 45 11 14 3 66 14 115 25 50
11 108 22 130 26 23 3 52 7 65 10 22 4 88 13 155 20 17 2 66 7 110 11 44 3 82
8 83 9 6 5 555 -3 587 -9z"/>
<path d="M4053 6657 c-10 -16 -10 -148 0 -154 13 -8 146 -12 151 -4 2 3 7 39
10 79 5 55 3 74 -7 78 -27 10 -148 11 -154 1z"/>
<path d="M3630 6633 c-14 -2 -41 -9 -61 -14 l-36 -9 13 -71 c16 -83 19 -89 42
-84 118 23 142 29 142 39 0 10 -9 52 -25 124 -5 22 -18 25 -75 15z"/>
<path d="M4564 6579 c-3 -6 -16 -43 -28 -83 l-23 -73 63 -16 c34 -10 69 -19
76 -22 9 -4 22 17 41 65 15 38 27 74 27 78 0 8 -24 19 -117 49 -21 7 -35 8
-39 2z"/>
<path d="M3118 6464 c-38 -19 -68 -38 -68 -43 0 -16 68 -136 77 -135 19 1 132
60 133 69 0 23 -53 145 -63 145 -7 -1 -42 -17 -79 -36z"/>
<path d="M4996 6313 l-46 -67 67 -44 68 -44 25 29 c42 50 66 78 73 90 4 6 -23
30 -63 57 -38 25 -72 46 -74 46 -2 0 -24 -30 -50 -67z"/>
<path d="M2686 6184 c-36 -31 -66 -57 -66 -59 0 -2 24 -29 54 -60 50 -51 76
-67 76 -47 0 4 23 25 50 45 28 21 50 41 50 45 0 4 -22 35 -49 69 l-48 62 -67
-55z"/>
<path d="M5388 6005 l-57 -54 50 -58 c28 -32 54 -58 58 -58 4 0 28 17 53 38
24 20 52 43 61 50 15 11 10 19 -43 75 -33 34 -61 62 -62 62 -2 0 -29 -25 -60
-55z"/>
<path d="M2342 5813 c-21 -32 -42 -63 -45 -70 -4 -6 13 -25 41 -46 89 -63 84
-63 130 3 23 32 42 63 42 67 -1 7 -90 81 -117 97 -7 4 -26 -15 -51 -51z"/>
<path d="M2934 5820 c-28 -11 -63 -58 -103 -137 -17 -34 -35 -64 -40 -67 -5
-3 -33 -9 -63 -12 -97 -10 -152 -27 -174 -55 -39 -49 -19 -106 71 -198 l65
-67 -10 -60 c-26 -152 -18 -193 43 -219 42 -17 67 -12 166 36 l83 41 75 -37
c104 -52 130 -58 167 -40 60 28 70 77 45 216 l-12 65 57 54 c65 62 99 111 99
147 0 69 -60 105 -194 117 -63 6 -73 14 -108 91 -50 110 -103 149 -167 125z
m64 -290 c33 -52 76 -80 126 -80 38 0 38 -13 1 -49 -39 -38 -50 -80 -41 -146
l7 -45 -47 25 c-59 31 -97 31 -152 0 l-42 -24 5 56 c5 66 -10 109 -54 145 -34
29 -33 30 41 43 41 6 89 48 110 95 7 16 13 30 14 30 1 0 15 -23 32 -50z"/>
<path d="M3965 5820 c-30 -12 -49 -37 -95 -127 l-43 -82 -51 -6 c-28 -3 -65
-7 -81 -9 -50 -5 -102 -35 -115 -67 -22 -51 -5 -91 70 -171 64 -67 70 -76 65
-108 -6 -46 -15 -92 -20 -108 -3 -7 0 -34 5 -60 14 -64 57 -94 115 -83 48 10
110 36 147 62 14 11 31 19 37 19 6 0 53 -20 104 -45 52 -25 102 -43 114 -41
29 6 57 21 73 41 17 20 17 125 0 196 l-13 52 62 60 c35 34 71 77 80 96 30 60
12 112 -47 137 -40 17 -51 19 -127 29 -75 9 -78 11 -99 62 -28 67 -73 140 -94
148 -27 12 -65 14 -87 5z m108 -342 c12 -10 41 -20 65 -24 23 -3 44 -10 47
-14 3 -5 -8 -22 -25 -38 -41 -41 -52 -77 -45 -138 l6 -52 -47 24 c-58 29 -83
30 -136 4 -23 -11 -45 -20 -48 -20 -6 0 2 76 9 95 4 13 -32 65 -64 94 -20 17
-34 31 -33 32 9 2 38 8 71 13 51 8 81 32 107 85 l21 44 25 -44 c14 -24 35 -52
47 -61z"/>
<path d="M5005 5823 c-34 -8 -54 -34 -102 -125 -27 -54 -51 -88 -62 -89 -102
-7 -149 -16 -188 -36 -83 -43 -59 -148 55 -241 l44 -36 -7 -56 c-22 -175 -16
-208 39 -234 41 -19 82 -10 179 39 l73 37 89 -43 c111 -53 147 -54 188 -8 28
30 29 35 24 98 -4 36 -10 85 -15 109 l-9 42 67 69 c75 78 95 115 86 164 -10
53 -64 78 -201 92 -27 3 -52 8 -56 13 -4 4 -23 37 -42 73 -52 99 -65 117 -99
128 -17 6 -34 10 -37 10 -3 -1 -15 -4 -26 -6z m50 -277 c24 -51 68 -87 112
-93 67 -8 68 -10 24 -54 -46 -46 -57 -84 -43 -145 l9 -42 -54 25 c-58 27 -93
26 -147 -2 -41 -22 -44 -19 -36 23 12 66 2 96 -53 154 -28 30 -29 29 43 44 19
3 43 12 52 19 20 13 68 81 68 95 0 19 9 10 25 -24z"/>
<path d="M5689 5608 l-65 -43 33 -60 c18 -33 34 -64 36 -70 4 -11 147 54 147
67 0 15 -70 148 -78 148 -4 0 -37 -19 -73 -42z"/>
<path d="M2102 5368 c-12 -29 -24 -66 -27 -83 -6 -30 -5 -30 66 -53 74 -24 86
-22 93 15 3 11 13 39 24 61 15 30 17 44 8 50 -15 12 -123 62 -134 62 -4 0 -18
-24 -30 -52z"/>
<path d="M5873 5149 c-70 -22 -67 -13 -39 -129 12 -48 12 -48 81 -36 80 14 99
22 91 35 -3 4 -8 23 -11 42 -13 78 -26 109 -43 108 -9 0 -45 -10 -79 -20z"/>
<path d="M1976 4875 l-7 -45 -95 -1 c-52 -1 -97 -2 -101 -3 -65 -17 -97 -32
-134 -60 -58 -45 -76 -68 -108 -135 l-26 -56 -2 -635 c-3 -698 -2 -709 57
-795 38 -55 97 -102 158 -125 26 -10 50 -18 55 -19 4 -1 10 -1 15 -2 4 0 91
-1 195 -1 l187 -1 0 -667 0 -667 83 1 82 1 0 665 0 665 83 1 82 2 2 -666 3
-666 80 -1 80 0 3 666 2 666 1333 -1 1332 -1 0 -665 0 -664 83 -2 c54 -1 82 2
83 10 0 6 1 306 2 666 l2 655 83 1 82 1 0 -667 0 -666 78 1 c42 1 79 3 82 4 3
0 5 300 5 665 l0 663 180 1 c99 0 182 1 185 2 3 1 17 3 33 5 41 5 128 50 164
84 43 40 77 96 93 154 17 62 19 1280 2 1340 -25 90 -103 180 -191 221 l-46 21
-2057 3 -2058 2 6 35 c4 29 2 35 -13 36 -23 2 -46 5 -104 13 l-47 6 -6 -45z
m4244 -219 c40 -14 79 -45 97 -79 16 -29 17 -90 18 -647 1 -338 -3 -629 -7
-646 -11 -42 -42 -80 -81 -101 -30 -16 -189 -17 -2241 -18 -2208 0 -2208 0
-2249 21 -28 13 -48 34 -64 64 l-23 43 0 625 c0 615 0 625 21 662 21 37 60 67
105 79 35 9 4395 6 4424 -3z"/>
<path d="M3215 4326 c-119 -23 -218 -97 -267 -199 -30 -61 -40 -107 -43 -199
-10 -272 155 -436 432 -429 169 5 282 70 349 202 34 67 39 98 39 224 0 119
-20 189 -74 261 -91 120 -258 174 -436 140z m178 -160 c76 -33 118 -111 122
-230 4 -135 -35 -225 -116 -267 -74 -37 -176 -14 -228 52 -94 120 -56 393 63
445 40 17 118 18 159 0z"/>
<path d="M2024 4305 c-1 -5 -2 -185 -1 -400 l2 -390 103 -1 102 -1 0 177 0
177 154 0 153 0 0 -167 c0 -92 3 -171 6 -177 7 -11 181 -13 192 -2 4 5 8 458
5 764 l0 30 -100 1 -100 1 -1 -31 c0 -17 -1 -83 -2 -146 l-2 -115 -140 -1
c-77 0 -146 1 -152 4 -10 3 -13 41 -13 146 l0 142 -101 -1 c-59 0 -103 -4
-105 -10z"/>
<path d="M3810 4238 l0 -78 48 -1 c26 0 82 -1 124 -1 l77 0 0 -315 c0 -174 3
-318 6 -322 4 -3 52 -6 106 -7 l100 -1 -1 56 c-1 31 -1 176 -1 323 l1 266 114
0 c63 0 119 2 124 6 6 4 10 38 9 79 l-2 72 -352 0 -353 0 0 -77z"/>
<path d="M4651 4310 c-5 -3 -8 -183 -7 -400 l1 -395 290 0 290 0 1 78 1 77
-189 0 -189 0 2 99 1 99 175 -2 174 -1 -3 80 -3 80 -170 0 -170 0 -2 67 -1 67
151 0 c84 -1 168 0 188 0 l36 1 -1 78 -1 77 -283 0 c-156 0 -287 -2 -291 -5z"/>
<path d="M5406 4310 c-2 -3 -3 -183 -2 -400 l1 -395 287 -1 287 -1 3 31 c2 17
1 52 0 79 l-4 47 -183 0 -183 0 -1 143 c0 78 0 223 0 322 l-1 181 -101 0 c-55
0 -102 -3 -103 -6z"/>
</g>
</svg>
